<svg width="24" height="24" viewBox="0 0 24 24" fill="none" xmlns="http://www.w3.org/2000/svg">
  <path d="M12 22C17.5228 22 22 17.5228 22 12C22 6.47715 17.5228 2 12 2C6.47715 2 2 6.47715 2 12C2 17.5228 6.47715 22 12 22Z" stroke="#2563EB" stroke-width="2" stroke-linecap="round" stroke-linejoin="round"/>
  <path d="M12 16.5L12 15.5" stroke="#2563EB" stroke-width="2" stroke-linecap="round" stroke-linejoin="round"/>
  <path d="M12 13.5V8.5C12 7.97 12.209 7.461 12.581 7.086C12.954 6.711 13.462 6.5 13.991 6.5C14.52 6.5 15.027 6.711 15.4 7.086C15.772 7.461 15.982 7.97 15.982 8.5C15.982 9.03 15.772 9.539 15.4 9.914C15.027 10.289 14.52 10.5 13.991 10.5H12" stroke="#2563EB" stroke-width="2" stroke-linecap="round" stroke-linejoin="round"/>
</svg>